<mxfile host="65bd71144e">
    <diagram id="MQ3bTOHc2Pmw_59HKOvL" name="PÃ¡gina-1">
        <mxGraphModel dx="2656" dy="1120" grid="1" gridSize="10" guides="1" tooltips="1" connect="1" arrows="1" fold="1" page="1" pageScale="1" pageWidth="827" pageHeight="1169" background="none" math="0" shadow="0">
            <root>
                <mxCell id="0"/>
                <mxCell id="1" parent="0"/>
                <mxCell id="1WIkfAdYHAtrKzwX6Avq-23" value="&lt;b&gt;&lt;font color=&quot;#000000&quot;&gt;Express&lt;/font&gt;&lt;/b&gt;" style="rounded=0;whiteSpace=wrap;html=1;fillColor=#FFFFFF;" parent="1" vertex="1">
                    <mxGeometry x="-533" y="350" width="120" height="60" as="geometry"/>
                </mxCell>
                <mxCell id="1WIkfAdYHAtrKzwX6Avq-132" style="edgeStyle=orthogonalEdgeStyle;rounded=0;orthogonalLoop=1;jettySize=auto;html=1;entryX=0;entryY=0.5;entryDx=0;entryDy=0;" parent="1" source="1WIkfAdYHAtrKzwX6Avq-120" target="1WIkfAdYHAtrKzwX6Avq-42" edge="1">
                    <mxGeometry relative="1" as="geometry"/>
                </mxCell>
                <mxCell id="1WIkfAdYHAtrKzwX6Avq-133" style="edgeStyle=orthogonalEdgeStyle;rounded=0;orthogonalLoop=1;jettySize=auto;html=1;exitX=0.5;exitY=1;exitDx=0;exitDy=0;entryX=0.519;entryY=1.002;entryDx=0;entryDy=0;entryPerimeter=0;" parent="1" source="1WIkfAdYHAtrKzwX6Avq-120" target="1WIkfAdYHAtrKzwX6Avq-17" edge="1">
                    <mxGeometry relative="1" as="geometry">
                        <Array as="points">
                            <mxPoint x="-266" y="820"/>
                            <mxPoint x="437" y="820"/>
                        </Array>
                    </mxGeometry>
                </mxCell>
                <mxCell id="1WIkfAdYHAtrKzwX6Avq-143" style="edgeStyle=orthogonalEdgeStyle;rounded=0;orthogonalLoop=1;jettySize=auto;html=1;exitX=0.5;exitY=0;exitDx=0;exitDy=0;entryX=0;entryY=0.5;entryDx=0;entryDy=0;" parent="1" source="1WIkfAdYHAtrKzwX6Avq-120" target="1WIkfAdYHAtrKzwX6Avq-89" edge="1">
                    <mxGeometry relative="1" as="geometry"/>
                </mxCell>
                <mxCell id="1WIkfAdYHAtrKzwX6Avq-145" style="edgeStyle=orthogonalEdgeStyle;rounded=0;orthogonalLoop=1;jettySize=auto;html=1;exitX=1;exitY=0.25;exitDx=0;exitDy=0;entryX=-0.002;entryY=0.083;entryDx=0;entryDy=0;entryPerimeter=0;" parent="1" source="1WIkfAdYHAtrKzwX6Avq-120" target="1WIkfAdYHAtrKzwX6Avq-62" edge="1">
                    <mxGeometry relative="1" as="geometry"/>
                </mxCell>
                <mxCell id="1WIkfAdYHAtrKzwX6Avq-120" value="" style="rounded=0;whiteSpace=wrap;html=1;" parent="1" vertex="1">
                    <mxGeometry x="-382" y="255" width="233" height="330" as="geometry"/>
                </mxCell>
                <mxCell id="1WIkfAdYHAtrKzwX6Avq-80" value="" style="rounded=0;whiteSpace=wrap;html=1;dashed=1;" parent="1" vertex="1">
                    <mxGeometry x="759" y="505" width="270" height="105" as="geometry"/>
                </mxCell>
                <mxCell id="1WIkfAdYHAtrKzwX6Avq-17" value="" style="rounded=0;whiteSpace=wrap;html=1;" parent="1" vertex="1">
                    <mxGeometry x="208" y="525" width="441" height="250" as="geometry"/>
                </mxCell>
                <mxCell id="1WIkfAdYHAtrKzwX6Avq-24" style="edgeStyle=orthogonalEdgeStyle;rounded=0;orthogonalLoop=1;jettySize=auto;html=1;entryX=0.5;entryY=0;entryDx=0;entryDy=0;" parent="1" source="1WIkfAdYHAtrKzwX6Avq-18" target="1WIkfAdYHAtrKzwX6Avq-19" edge="1">
                    <mxGeometry relative="1" as="geometry"/>
                </mxCell>
                <mxCell id="1WIkfAdYHAtrKzwX6Avq-36" style="edgeStyle=orthogonalEdgeStyle;rounded=0;orthogonalLoop=1;jettySize=auto;html=1;exitX=0;exitY=0.5;exitDx=0;exitDy=0;entryX=1;entryY=0.5;entryDx=0;entryDy=0;" parent="1" source="1WIkfAdYHAtrKzwX6Avq-18" target="1WIkfAdYHAtrKzwX6Avq-33" edge="1">
                    <mxGeometry relative="1" as="geometry"/>
                </mxCell>
                <mxCell id="1WIkfAdYHAtrKzwX6Avq-87" style="edgeStyle=orthogonalEdgeStyle;rounded=0;orthogonalLoop=1;jettySize=auto;html=1;exitX=1;exitY=0.5;exitDx=0;exitDy=0;entryX=0;entryY=0.5;entryDx=0;entryDy=0;" parent="1" source="1WIkfAdYHAtrKzwX6Avq-18" target="1WIkfAdYHAtrKzwX6Avq-84" edge="1">
                    <mxGeometry relative="1" as="geometry"/>
                </mxCell>
                <mxCell id="1WIkfAdYHAtrKzwX6Avq-18" value="CertificateController" style="rounded=0;whiteSpace=wrap;html=1;" parent="1" vertex="1">
                    <mxGeometry x="508" y="535" width="120" height="60" as="geometry"/>
                </mxCell>
                <mxCell id="1WIkfAdYHAtrKzwX6Avq-19" value="Controller&lt;br&gt;(interface)" style="rounded=0;whiteSpace=wrap;html=1;dashed=1;" parent="1" vertex="1">
                    <mxGeometry x="508" y="685" width="120" height="60" as="geometry"/>
                </mxCell>
                <mxCell id="1WIkfAdYHAtrKzwX6Avq-20" style="edgeStyle=orthogonalEdgeStyle;rounded=0;orthogonalLoop=1;jettySize=auto;html=1;exitX=0.5;exitY=1;exitDx=0;exitDy=0;" parent="1" source="1WIkfAdYHAtrKzwX6Avq-17" target="1WIkfAdYHAtrKzwX6Avq-17" edge="1">
                    <mxGeometry relative="1" as="geometry"/>
                </mxCell>
                <mxCell id="1WIkfAdYHAtrKzwX6Avq-122" style="edgeStyle=orthogonalEdgeStyle;rounded=0;orthogonalLoop=1;jettySize=auto;html=1;exitX=0;exitY=0.5;exitDx=0;exitDy=0;entryX=1;entryY=0.5;entryDx=0;entryDy=0;" parent="1" source="1WIkfAdYHAtrKzwX6Avq-22" target="1WIkfAdYHAtrKzwX6Avq-23" edge="1">
                    <mxGeometry relative="1" as="geometry"/>
                </mxCell>
                <mxCell id="1WIkfAdYHAtrKzwX6Avq-22" value="RouteAdapter" style="rounded=0;whiteSpace=wrap;html=1;" parent="1" vertex="1">
                    <mxGeometry x="-340" y="350" width="142" height="60" as="geometry"/>
                </mxCell>
                <mxCell id="1WIkfAdYHAtrKzwX6Avq-32" value="&lt;b&gt;&lt;font color=&quot;#000000&quot;&gt;PRESENTATION&lt;/font&gt;&lt;/b&gt;" style="text;html=1;resizable=0;autosize=1;align=center;verticalAlign=middle;points=[];fillColor=#7EA6E0;strokeColor=none;rounded=0;dashed=1;" parent="1" vertex="1">
                    <mxGeometry x="529" y="495" width="120" height="30" as="geometry"/>
                </mxCell>
                <mxCell id="1WIkfAdYHAtrKzwX6Avq-33" value="EmailValidator" style="rounded=0;whiteSpace=wrap;html=1;dashed=1;" parent="1" vertex="1">
                    <mxGeometry x="308" y="535" width="120" height="60" as="geometry"/>
                </mxCell>
                <mxCell id="1WIkfAdYHAtrKzwX6Avq-39" value="&lt;b&gt;&lt;font color=&quot;#000000&quot;&gt;UTILS&lt;/font&gt;&lt;/b&gt;" style="text;html=1;resizable=0;autosize=1;align=center;verticalAlign=middle;points=[];fillColor=#FFE599;strokeColor=none;rounded=0;dashed=1;" parent="1" vertex="1">
                    <mxGeometry x="59" y="465" width="60" height="30" as="geometry"/>
                </mxCell>
                <mxCell id="1WIkfAdYHAtrKzwX6Avq-42" value="" style="rounded=0;whiteSpace=wrap;html=1;" parent="1" vertex="1">
                    <mxGeometry x="-81" y="495" width="200" height="125" as="geometry"/>
                </mxCell>
                <mxCell id="1WIkfAdYHAtrKzwX6Avq-54" style="edgeStyle=orthogonalEdgeStyle;rounded=0;orthogonalLoop=1;jettySize=auto;html=1;exitX=1;exitY=0.5;exitDx=0;exitDy=0;entryX=0;entryY=0.5;entryDx=0;entryDy=0;" parent="1" source="1WIkfAdYHAtrKzwX6Avq-47" target="1WIkfAdYHAtrKzwX6Avq-33" edge="1">
                    <mxGeometry relative="1" as="geometry"/>
                </mxCell>
                <mxCell id="1WIkfAdYHAtrKzwX6Avq-118" style="edgeStyle=orthogonalEdgeStyle;rounded=0;orthogonalLoop=1;jettySize=auto;html=1;exitX=0.5;exitY=1;exitDx=0;exitDy=0;entryX=0.5;entryY=0;entryDx=0;entryDy=0;" parent="1" source="1WIkfAdYHAtrKzwX6Avq-47" target="1WIkfAdYHAtrKzwX6Avq-49" edge="1">
                    <mxGeometry relative="1" as="geometry"/>
                </mxCell>
                <mxCell id="1WIkfAdYHAtrKzwX6Avq-47" value="EmailValidatorAdapter" style="rounded=0;whiteSpace=wrap;html=1;" parent="1" vertex="1">
                    <mxGeometry x="-56" y="535" width="150" height="60" as="geometry"/>
                </mxCell>
                <mxCell id="1WIkfAdYHAtrKzwX6Avq-49" value="&lt;font color=&quot;#000000&quot;&gt;Validator&lt;/font&gt;" style="rounded=0;whiteSpace=wrap;html=1;fillColor=#D9D9D9;" parent="1" vertex="1">
                    <mxGeometry x="-56" y="660" width="150" height="60" as="geometry"/>
                </mxCell>
                <mxCell id="1WIkfAdYHAtrKzwX6Avq-59" value="&lt;b&gt;&lt;font color=&quot;#000000&quot;&gt;DOMAIN&lt;/font&gt;&lt;/b&gt;" style="text;html=1;align=center;verticalAlign=middle;resizable=0;points=[];autosize=1;strokeColor=none;fillColor=#67AB9F;" parent="1" vertex="1">
                    <mxGeometry x="959" y="475" width="70" height="30" as="geometry"/>
                </mxCell>
                <mxCell id="1WIkfAdYHAtrKzwX6Avq-62" value="" style="rounded=0;whiteSpace=wrap;html=1;" parent="1" vertex="1">
                    <mxGeometry x="239" y="325" width="580" height="140" as="geometry"/>
                </mxCell>
                <mxCell id="1WIkfAdYHAtrKzwX6Avq-63" value="&lt;b&gt;&lt;font color=&quot;#000000&quot;&gt;DATA&lt;/font&gt;&lt;/b&gt;" style="text;html=1;align=center;verticalAlign=middle;resizable=0;points=[];autosize=1;strokeColor=none;fillColor=#CDA2BE;" parent="1" vertex="1">
                    <mxGeometry x="759" y="295" width="60" height="30" as="geometry"/>
                </mxCell>
                <mxCell id="1WIkfAdYHAtrKzwX6Avq-101" style="edgeStyle=orthogonalEdgeStyle;rounded=0;orthogonalLoop=1;jettySize=auto;html=1;entryX=0.5;entryY=1;entryDx=0;entryDy=0;" parent="1" source="1WIkfAdYHAtrKzwX6Avq-64" target="1WIkfAdYHAtrKzwX6Avq-96" edge="1">
                    <mxGeometry relative="1" as="geometry"/>
                </mxCell>
                <mxCell id="1WIkfAdYHAtrKzwX6Avq-112" style="edgeStyle=orthogonalEdgeStyle;rounded=0;orthogonalLoop=1;jettySize=auto;html=1;exitX=1;exitY=0.5;exitDx=0;exitDy=0;entryX=0.5;entryY=1;entryDx=0;entryDy=0;" parent="1" source="1WIkfAdYHAtrKzwX6Avq-64" target="1WIkfAdYHAtrKzwX6Avq-111" edge="1">
                    <mxGeometry relative="1" as="geometry"/>
                </mxCell>
                <mxCell id="1WIkfAdYHAtrKzwX6Avq-115" style="edgeStyle=orthogonalEdgeStyle;rounded=0;orthogonalLoop=1;jettySize=auto;html=1;exitX=0.5;exitY=1;exitDx=0;exitDy=0;" parent="1" source="1WIkfAdYHAtrKzwX6Avq-64" target="1WIkfAdYHAtrKzwX6Avq-84" edge="1">
                    <mxGeometry relative="1" as="geometry">
                        <Array as="points">
                            <mxPoint x="529" y="480"/>
                            <mxPoint x="899" y="480"/>
                        </Array>
                    </mxGeometry>
                </mxCell>
                <mxCell id="1WIkfAdYHAtrKzwX6Avq-64" value="DbAddCertificate" style="rounded=0;whiteSpace=wrap;html=1;" parent="1" vertex="1">
                    <mxGeometry x="469" y="390" width="120" height="60" as="geometry"/>
                </mxCell>
                <mxCell id="1WIkfAdYHAtrKzwX6Avq-66" value="&lt;font color=&quot;#000000&quot;&gt;MongoDb&lt;/font&gt;" style="rounded=0;whiteSpace=wrap;html=1;fillColor=#D9D9D9;" parent="1" vertex="1">
                    <mxGeometry x="469" y="10" width="120" height="60" as="geometry"/>
                </mxCell>
                <mxCell id="1WIkfAdYHAtrKzwX6Avq-84" value="AddCertificate" style="rounded=0;whiteSpace=wrap;html=1;dashed=1;" parent="1" vertex="1">
                    <mxGeometry x="839" y="535" width="120" height="60" as="geometry"/>
                </mxCell>
                <mxCell id="1WIkfAdYHAtrKzwX6Avq-89" value="" style="rounded=0;whiteSpace=wrap;html=1;" parent="1" vertex="1">
                    <mxGeometry x="110" y="110" width="611" height="90" as="geometry"/>
                </mxCell>
                <mxCell id="1WIkfAdYHAtrKzwX6Avq-90" value="&lt;b&gt;&lt;font color=&quot;#000000&quot;&gt;INFRA&lt;/font&gt;&lt;/b&gt;" style="text;html=1;align=center;verticalAlign=middle;resizable=0;points=[];autosize=1;strokeColor=none;fillColor=#F19C99;" parent="1" vertex="1">
                    <mxGeometry x="661" y="80" width="60" height="30" as="geometry"/>
                </mxCell>
                <mxCell id="1WIkfAdYHAtrKzwX6Avq-93" value="&lt;font color=&quot;#000000&quot;&gt;Framework/biblioteca externa&lt;/font&gt;" style="rounded=0;whiteSpace=wrap;html=1;fillColor=#D9D9D9;" parent="1" vertex="1">
                    <mxGeometry x="110" y="10" width="180" height="60" as="geometry"/>
                </mxCell>
                <mxCell id="1WIkfAdYHAtrKzwX6Avq-96" value="Interface" style="rounded=0;whiteSpace=wrap;html=1;dashed=1;" parent="1" vertex="1">
                    <mxGeometry x="308" y="345" width="100" height="50" as="geometry"/>
                </mxCell>
                <mxCell id="1WIkfAdYHAtrKzwX6Avq-105" style="edgeStyle=orthogonalEdgeStyle;rounded=0;orthogonalLoop=1;jettySize=auto;html=1;exitX=0.5;exitY=1;exitDx=0;exitDy=0;entryX=0.5;entryY=0;entryDx=0;entryDy=0;" parent="1" source="1WIkfAdYHAtrKzwX6Avq-103" target="1WIkfAdYHAtrKzwX6Avq-96" edge="1">
                    <mxGeometry relative="1" as="geometry"/>
                </mxCell>
                <mxCell id="1WIkfAdYHAtrKzwX6Avq-138" style="edgeStyle=orthogonalEdgeStyle;rounded=0;orthogonalLoop=1;jettySize=auto;html=1;entryX=0.443;entryY=1.072;entryDx=0;entryDy=0;entryPerimeter=0;" parent="1" source="1WIkfAdYHAtrKzwX6Avq-103" target="1WIkfAdYHAtrKzwX6Avq-93" edge="1">
                    <mxGeometry relative="1" as="geometry"/>
                </mxCell>
                <mxCell id="1WIkfAdYHAtrKzwX6Avq-103" value="Adapter" style="rounded=0;whiteSpace=wrap;html=1;" parent="1" vertex="1">
                    <mxGeometry x="130" y="125" width="120" height="60" as="geometry"/>
                </mxCell>
                <mxCell id="1WIkfAdYHAtrKzwX6Avq-113" style="edgeStyle=orthogonalEdgeStyle;rounded=0;orthogonalLoop=1;jettySize=auto;html=1;exitX=0.5;exitY=1;exitDx=0;exitDy=0;" parent="1" source="1WIkfAdYHAtrKzwX6Avq-109" target="1WIkfAdYHAtrKzwX6Avq-111" edge="1">
                    <mxGeometry relative="1" as="geometry"/>
                </mxCell>
                <mxCell id="1WIkfAdYHAtrKzwX6Avq-141" style="edgeStyle=orthogonalEdgeStyle;rounded=0;orthogonalLoop=1;jettySize=auto;html=1;entryX=1;entryY=0.5;entryDx=0;entryDy=0;" parent="1" source="1WIkfAdYHAtrKzwX6Avq-109" target="1WIkfAdYHAtrKzwX6Avq-66" edge="1">
                    <mxGeometry relative="1" as="geometry"/>
                </mxCell>
                <mxCell id="1WIkfAdYHAtrKzwX6Avq-109" value="AddCertificateMongoRepo" style="rounded=0;whiteSpace=wrap;html=1;" parent="1" vertex="1">
                    <mxGeometry x="562" y="120" width="150" height="70" as="geometry"/>
                </mxCell>
                <mxCell id="1WIkfAdYHAtrKzwX6Avq-111" value="AddCertificateRepo" style="rounded=0;whiteSpace=wrap;html=1;dashed=1;" parent="1" vertex="1">
                    <mxGeometry x="649" y="340" width="120" height="60" as="geometry"/>
                </mxCell>
                <mxCell id="1WIkfAdYHAtrKzwX6Avq-116" value="HttpRequest" style="rounded=0;whiteSpace=wrap;html=1;dashed=1;" parent="1" vertex="1">
                    <mxGeometry x="220" y="685" width="120" height="60" as="geometry"/>
                </mxCell>
                <mxCell id="1WIkfAdYHAtrKzwX6Avq-117" value="HttpController" style="rounded=0;whiteSpace=wrap;html=1;dashed=1;" parent="1" vertex="1">
                    <mxGeometry x="368.5" y="685" width="120" height="60" as="geometry"/>
                </mxCell>
                <mxCell id="1WIkfAdYHAtrKzwX6Avq-121" value="&lt;b&gt;&lt;font color=&quot;#000000&quot;&gt;MAIN&lt;/font&gt;&lt;/b&gt;" style="text;html=1;resizable=0;autosize=1;align=center;verticalAlign=middle;points=[];fillColor=#FFF4C3;strokeColor=none;rounded=0;dashed=1;" parent="1" vertex="1">
                    <mxGeometry x="-198" y="225" width="50" height="30" as="geometry"/>
                </mxCell>
                <mxCell id="1WIkfAdYHAtrKzwX6Avq-123" value="CertificateController" style="rounded=0;whiteSpace=wrap;html=1;" parent="1" vertex="1">
                    <mxGeometry x="-336.5" y="270" width="142" height="60" as="geometry"/>
                </mxCell>
                <mxCell id="1WIkfAdYHAtrKzwX6Avq-128" style="edgeStyle=orthogonalEdgeStyle;rounded=0;orthogonalLoop=1;jettySize=auto;html=1;exitX=0.5;exitY=0;exitDx=0;exitDy=0;entryX=0.5;entryY=1;entryDx=0;entryDy=0;" parent="1" source="1WIkfAdYHAtrKzwX6Avq-125" target="1WIkfAdYHAtrKzwX6Avq-126" edge="1">
                    <mxGeometry relative="1" as="geometry"/>
                </mxCell>
                <mxCell id="1WIkfAdYHAtrKzwX6Avq-125" value="App" style="rounded=0;whiteSpace=wrap;html=1;" parent="1" vertex="1">
                    <mxGeometry x="-336.5" y="520" width="142" height="60" as="geometry"/>
                </mxCell>
                <mxCell id="1WIkfAdYHAtrKzwX6Avq-130" style="edgeStyle=orthogonalEdgeStyle;rounded=0;orthogonalLoop=1;jettySize=auto;html=1;exitX=0.5;exitY=0;exitDx=0;exitDy=0;entryX=0.5;entryY=1;entryDx=0;entryDy=0;" parent="1" source="1WIkfAdYHAtrKzwX6Avq-126" target="1WIkfAdYHAtrKzwX6Avq-22" edge="1">
                    <mxGeometry relative="1" as="geometry"/>
                </mxCell>
                <mxCell id="1WIkfAdYHAtrKzwX6Avq-126" value="CertificateRoute" style="rounded=0;whiteSpace=wrap;html=1;" parent="1" vertex="1">
                    <mxGeometry x="-340" y="435" width="142" height="60" as="geometry"/>
                </mxCell>
                <mxCell id="1WIkfAdYHAtrKzwX6Avq-140" style="edgeStyle=orthogonalEdgeStyle;rounded=0;orthogonalLoop=1;jettySize=auto;html=1;exitX=0.5;exitY=0;exitDx=0;exitDy=0;entryX=0;entryY=0.5;entryDx=0;entryDy=0;" parent="1" source="1WIkfAdYHAtrKzwX6Avq-139" target="1WIkfAdYHAtrKzwX6Avq-66" edge="1">
                    <mxGeometry relative="1" as="geometry"/>
                </mxCell>
                <mxCell id="1WIkfAdYHAtrKzwX6Avq-139" value="LoadUserByEmailMongoRepo" style="rounded=0;whiteSpace=wrap;html=1;" parent="1" vertex="1">
                    <mxGeometry x="315.5" y="125" width="200" height="55" as="geometry"/>
                </mxCell>
            </root>
        </mxGraphModel>
    </diagram>
</mxfile>
